<?xml version="1.0" encoding="utf-8"?>
<!-- Svg Vector Icons : http://www.onlinewebfonts.com/icon -->
<!DOCTYPE svg PUBLIC "-//W3C//DTD SVG 1.1//EN" "http://www.w3.org/Graphics/SVG/1.1/DTD/svg11.dtd">
<svg version="1.1" xmlns="http://www.w3.org/2000/svg" xmlns:xlink="http://www.w3.org/1999/xlink" x="0px" y="0px" viewBox="0 0 1000 1000" enable-background="new 0 0 1000 1000" xml:space="preserve">
<metadata> Svg Vector Icons : http://www.onlinewebfonts.com/icon </metadata>
<g><g><g><path fill="#2b2b2b" d="M544,379.9l15.8-0.5V276.5L784.9,500L559.7,723.5V599.7h-16.3c-214.3,0-307.8,87.4-341.3,131.5C220.4,394.9,530.4,380.4,544,379.9z"/><path fill="#FFF" d="M10,500c0,270.6,219.4,490,490,490s490-219.4,490-490S770.6,10,500,10S10,229.4,10,500z M168.7,762.7c0-350.5,287.2-405.8,358.4-414V198.1L831.3,500L527.1,801.9V632.6c-244.7,5.6-310.4,135.8-311,137.1l-4.4,9.4h-43L168.7,762.7L168.7,762.7L168.7,762.7z"/></g></g><g></g><g></g><g></g><g></g><g></g><g></g><g></g><g></g><g></g><g></g><g></g><g></g><g></g><g></g><g></g></g>
</svg>