<?xml version="1.0" encoding="utf-8"?>
<!-- Svg Vector Icons : http://www.onlinewebfonts.com/icon -->
<!DOCTYPE svg PUBLIC "-//W3C//DTD SVG 1.1//EN" "http://www.w3.org/Graphics/SVG/1.1/DTD/svg11.dtd">
<svg version="1.1" xmlns="http://www.w3.org/2000/svg" xmlns:xlink="http://www.w3.org/1999/xlink" x="0px" y="0px" viewBox="0 0 1000 1000" enable-background="new 0 0 1000 1000" xml:space="preserve">
<metadata> Svg Vector Icons : http://www.onlinewebfonts.com/icon </metadata>
<g><path fill="#288cbf" d="M978.4,274L978.4,274c7.2-8.8,11.6-20.1,11.6-32.4c0-28.3-22.9-51.2-51.2-51.2l-0.1-0.2H61.1l-0.1,0.2c-28.2,0.1-51,23-51,51.2c0,13.4,5.2,25.6,13.6,34.8l436.7,513.3h0c9.4,12.3,24.1,20.2,40.7,20.2c16.1,0,30.5-7.5,39.9-19.1h0l437.1-516.3C978.2,274.3,978.3,274.2,978.4,274L978.4,274z"/></g>
</svg>