<?xml version="1.0" encoding="utf-8"?>
<!-- Svg Vector Icons : http://www.onlinewebfonts.com/icon -->
<!DOCTYPE svg PUBLIC "-//W3C//DTD SVG 1.1//EN" "http://www.w3.org/Graphics/SVG/1.1/DTD/svg11.dtd">
<svg version="1.1" xmlns="http://www.w3.org/2000/svg" xmlns:xlink="http://www.w3.org/1999/xlink" x="0px" y="0px" viewBox="0 0 1000 1000" enable-background="new 0 0 1000 1000" xml:space="preserve">
<metadata> Svg Vector Icons : http://www.onlinewebfonts.com/icon </metadata>
<g><path fill="#FFF" d="M929.9,559.5H70.1C36.9,559.5,10,532.9,10,500c0-32.9,26.9-59.5,60.1-59.5h859.9c33.2,0,60.1,26.6,60.1,59.5C990,532.9,963.1,559.5,929.9,559.5z M929.9,242.1H70.1c-33.2,0-60.1-26.6-60.1-59.5c0-32.9,26.9-59.5,60.1-59.5h859.9c33.2,0,60.1,26.6,60.1,59.5S963.1,242.1,929.9,242.1z M70.1,757.9h859.9c33.2,0,60.1,26.6,60.1,59.5s-26.9,59.5-60.1,59.5H70.1c-33.2,0-60.1-26.6-60.1-59.5C10,784.5,36.9,757.9,70.1,757.9z"/></g>
</svg>