<?xml version="1.0" encoding="utf-8"?>
<!-- Svg Vector Icons : http://www.onlinewebfonts.com/icon -->
<!DOCTYPE svg PUBLIC "-//W3C//DTD SVG 1.1//EN" "http://www.w3.org/Graphics/SVG/1.1/DTD/svg11.dtd">
<svg version="1.1" xmlns="http://www.w3.org/2000/svg" xmlns:xlink="http://www.w3.org/1999/xlink" x="0px" y="0px" viewBox="0 0 1000 1000" enable-background="new 0 0 1000 1000" xml:space="preserve">
<metadata> Svg Vector Icons : http://www.onlinewebfonts.com/icon </metadata>
<g><g fill="#288cbf" transform="translate(0.000000,511.000000) scale(0.100000,-0.100000)"><path d="M4603.3,4857.5c-554.5-80.9-895.4-236.8-1186.1-539.1c-144.4-152.1-217.6-254.2-306.2-431.3c-165.6-329.3-267.6-735.5-317.7-1267c-11.6-115.5-23.1-150.2-63.5-190.6l-48.1-48.1l11.5-311.9c13.5-340.8,50.1-591.1,111.7-758.7c23.1-59.7,50.1-157.9,59.7-215.7c94.4-543,159.8-766.4,306.2-1055.2c102-198.3,215.6-365.8,354.3-519.9l90.5-100.1l-13.5-179.1c-30.8-390.9-104-673.9-208-793.3l-63.5-73.2l-250.3-25c-826-84.7-1958.2-467.9-2539.8-860.7c-156-105.9-329.3-273.4-392.8-379.3c-50.1-86.6-50.1-90.5-46.2-442.9c3.8-573.8,82.8-853,265.7-957C760-4510.2,2467.9-4643,4930.7-4643c2493.5,0,4274.6,140.5,4694.4,369.7c159.8,86.6,231.1,327.3,265.7,876.1c21.2,363.9,11.6,431.3-90.5,577.7c-317.7,460.2-1788.8,1057.1-2884.4,1168.8l-250.3,25l-63.5,73.2c-102,117.5-177.1,408.2-207.9,810.7l-13.5,156l100.1,113.6c340.8,388.9,548.8,874.2,635.4,1480.7c11.5,84.7,42.4,206,67.4,271.5c69.3,173.3,105.9,419.8,119.4,779.8l11.5,321.6l-48.1,48.1c-40.4,40.4-50.1,73.2-61.6,209.9c-59.7,714.4-233,1307.4-483.3,1663.6c-223.3,313.9-473.7,458.3-924.2,529.5C5662.4,4853.6,4713.1,4872.9,4603.3,4857.5z M5672,4532c132.9-15.4,275.4-38.5,317.7-50.1c535.3-150.2,814.5-743.2,912.7-1937.1c13.5-175.2,25-227.2,59.7-277.3c42.4-55.8,44.3-71.2,30.8-285c-17.3-300.4-42.3-452.5-98.2-577.7c-30.8-65.5-61.6-196.4-86.7-367.8C6717.5,423,6553.9,62.9,6164.9-366.4l-94.3-104l13.5-196.4c40.4-616.2,202.2-1064.8,439-1209.2c80.9-50.1,121.3-59.7,369.7-82.8c930-88.6,2225.9-548.8,2601.4-922.3c102.1-104,113.6-177.1,88.6-568c-21.2-348.5-53.9-512.2-111.7-562.2c-240.7-209.9-2281.7-338.9-4992.8-317.7c-1896.6,15.4-3034.6,79-3650.8,204.1c-352.4,73.2-381.2,107.8-414,508.3c-28.9,352.4-9.6,604.6,52,689.3c267.6,363.9,1661.7,876.1,2636,968.5c238.8,23.1,288.8,32.7,365.8,77c242.6,142.5,408.2,591.1,444.8,1205.4l13.5,202.2l-136.7,157.9c-338.9,394.7-491,718.2-581.5,1243.9c-21.2,127.1-38.5,252.2-38.5,279.2c0,28.9-21.2,98.2-48.1,154c-63.5,136.7-100.1,333.1-117.5,614.2c-11.6,221.4-11.6,236.8,28.9,292.7c34.7,48.1,48.1,109.8,69.3,333.1c57.8,593.1,123.2,860.7,292.7,1193.8c221.4,433.2,610.4,675.8,1209.2,752.9C4763.2,4568.6,5452.5,4559,5672,4532z"/></g></g>
</svg>