<?xml version="1.0" encoding="utf-8"?>
<!-- Svg Vector Icons : http://www.onlinewebfonts.com/icon -->
<!DOCTYPE svg PUBLIC "-//W3C//DTD SVG 1.1//EN" "http://www.w3.org/Graphics/SVG/1.1/DTD/svg11.dtd">
<svg version="1.1" xmlns="http://www.w3.org/2000/svg" xmlns:xlink="http://www.w3.org/1999/xlink" x="0px" y="0px" viewBox="0 0 1000 1000" enable-background="new 0 0 1000 1000" xml:space="preserve">
<metadata> Svg Vector Icons : http://www.onlinewebfonts.com/icon </metadata>
<g><path fill="#288cbf" d="M935.5,78H336.6c-30.1,0-54.5,24.4-54.5,54.5v27.2c0,30.1,24.4,54.5,54.5,54.5h598.9c30.1,0,54.5-24.4,54.5-54.5v-27.2C990,102.4,965.6,78,935.5,78z M935.5,431.9H336.6c-30.1,0-54.5,24.4-54.5,54.5v27.2c0,30.1,24.4,54.5,54.5,54.5h598.9c30.1,0,54.5-24.4,54.5-54.5v-27.2C990,456.3,965.6,431.9,935.5,431.9z M935.5,785.9H336.6c-30.1,0-54.5,24.4-54.5,54.4v27.2c0,30.1,24.4,54.5,54.5,54.5h598.9c30.1,0,54.5-24.4,54.5-54.5v-27.2C990,810.2,965.6,785.9,935.5,785.9z M91.6,78H64.4C34.4,78,10,102.4,10,132.5v27.2c0,30.1,24.4,54.5,54.4,54.5h27.2c30.1,0,54.5-24.4,54.5-54.5v-27.2C146.1,102.4,121.7,78,91.6,78z M91.6,785.9H64.4c-30.1,0-54.4,24.4-54.4,54.4v27.2c0,30.1,24.4,54.5,54.4,54.5h27.2c30.1,0,54.5-24.4,54.5-54.5v-27.2C146.1,810.2,121.7,785.9,91.6,785.9z M91.6,431.9H64.4c-30.1,0-54.4,24.4-54.4,54.5v27.2c0,30.1,24.4,54.5,54.4,54.5h27.2c30.1,0,54.5-24.4,54.5-54.5v-27.2C146.1,456.3,121.7,431.9,91.6,431.9z"/></g>
</svg>