<?xml version="1.0" encoding="utf-8"?>
<!-- Svg Vector Icons : http://www.onlinewebfonts.com/icon -->
<!DOCTYPE svg PUBLIC "-//W3C//DTD SVG 1.1//EN" "http://www.w3.org/Graphics/SVG/1.1/DTD/svg11.dtd">
<svg version="1.1" xmlns="http://www.w3.org/2000/svg" xmlns:xlink="http://www.w3.org/1999/xlink" x="0px" y="0px" viewBox="0 0 1000 1000" enable-background="new 0 0 1000 1000" xml:space="preserve">
<metadata> Svg Vector Icons : http://www.onlinewebfonts.com/icon </metadata>
<g><path fill="#FFF" d="M177.5,593c-51.3,0-93-41.7-93-93s41.7-93,93-93s93,41.7,93,93C270.5,551.3,228.8,593,177.5,593z M177.5,444.2c-30.8,0-55.8,25-55.8,55.8c0,30.8,25,55.8,55.8,55.8c30.8,0,55.8-25,55.8-55.8C233.3,469.2,208.2,444.2,177.5,444.2z"/><path fill="#FFF" d="M822.5,196.1c-51.3,0-93-41.7-93-93c0-51.3,41.7-93,93-93c51.3,0,93,41.7,93,93C915.6,154.3,873.8,196.1,822.5,196.1z M822.5,47.2c-30.8,0-55.8,25-55.8,55.8s25,55.8,55.8,55.8c30.8,0,55.8-25,55.8-55.8S853.3,47.2,822.5,47.2z"/><path fill="#FFF" d="M240.9,479.6c-6.2,0-12.4-3.2-15.9-8.9c-5.4-8.7-2.7-20.2,6.1-25.6l518.3-318.9c8.7-5.4,20.2-2.7,25.6,6.1c5.4,8.7,2.6,20.2-6.1,25.6L250.6,476.8C247.6,478.7,244.2,479.6,240.9,479.6z"/><path fill="#FFF" d="M822.5,990c-51.3,0-93-41.7-93-93c0-51.3,41.7-93.1,93-93.1c51.3,0,93,41.8,93,93.1C915.6,948.3,873.8,990,822.5,990z M822.5,841.1c-30.8,0-55.8,25.1-55.8,55.9c0,30.8,25,55.8,55.8,55.8c30.8,0,55.8-25,55.8-55.8C878.4,866.2,853.3,841.1,822.5,841.1z"/><path fill="#FFF" d="M759.1,876.5c-3.3,0-6.7-0.9-9.7-2.8L231.1,554.9c-8.8-5.4-11.5-16.9-6.1-25.6c5.4-8.8,16.8-11.5,25.6-6.1L768.9,842c8.8,5.4,11.5,16.9,6.1,25.6C771.5,873.4,765.4,876.5,759.1,876.5z"/></g>
</svg>